<?xml version="1.0" encoding="UTF-8" standalone="no"?>
<!-- Created with Inkscape (http://www.inkscape.org/) -->

<svg
   xmlns:dc="http://purl.org/dc/elements/1.1/"
   xmlns:cc="http://creativecommons.org/ns#"
   xmlns:rdf="http://www.w3.org/1999/02/22-rdf-syntax-ns#"
   xmlns:svg="http://www.w3.org/2000/svg"
   xmlns="http://www.w3.org/2000/svg"
   xmlns:sodipodi="http://sodipodi.sourceforge.net/DTD/sodipodi-0.dtd"
   xmlns:inkscape="http://www.inkscape.org/namespaces/inkscape"
   width="744.09448819"
   height="1052.3622047"
   id="svg3958"
   version="1.1"
   inkscape:version="0.48.2 r9819"
   sodipodi:docname="brands.svg"
   inkscape:export-filename="/Users/User/ValveProj/AceInterns/app/assets/images/logo/brands.png"
   inkscape:export-xdpi="90"
   inkscape:export-ydpi="90">
  <defs
     id="defs3960">
    <clipPath
       id="clipPath4142"
       clipPathUnits="userSpaceOnUse">
      <path
         id="path4144"
         d="M 0,792 612,792 612,0 0,0 0,792 z" />
    </clipPath>
    <clipPath
       id="clipPath4231"
       clipPathUnits="userSpaceOnUse">
      <path
         id="path4233"
         d="M 0,1740.64 0,0 l 5346.91,0 0,1740.64 -5346.91,0 z" />
    </clipPath>
    <clipPath
       id="clipPath4320"
       clipPathUnits="userSpaceOnUse">
      <path
         id="path4322"
         d="M 0,612 792,612 792,0 0,0 0,612 z" />
    </clipPath>
    <clipPath
       id="clipPath4436"
       clipPathUnits="userSpaceOnUse">
      <path
         id="path4438"
         d="M 0,7336.79 0,0 l 5500.87,0 0,7336.79 -5500.87,0 z" />
    </clipPath>
    <clipPath
       id="clipPath4508"
       clipPathUnits="userSpaceOnUse">
      <path
         id="path4510"
         d="m 0,0 4390.77,0 0,858 L 0,858 0,0 z" />
    </clipPath>
    <clipPath
       id="clipPath4589"
       clipPathUnits="userSpaceOnUse">
      <path
         id="path4591"
         d="M 0,2834.65 0,0 l 2834.65,0 0,2834.65 -2834.65,0 z" />
    </clipPath>
  </defs>
  <sodipodi:namedview
     id="base"
     pagecolor="#ffffff"
     bordercolor="#666666"
     borderopacity="1.0"
     inkscape:pageopacity="0.0"
     inkscape:pageshadow="2"
     inkscape:zoom="1"
     inkscape:cx="373.88576"
     inkscape:cy="883.02886"
     inkscape:document-units="px"
     inkscape:current-layer="layer1"
     showgrid="false"
     inkscape:window-width="1440"
     inkscape:window-height="852"
     inkscape:window-x="0"
     inkscape:window-y="0"
     inkscape:window-maximized="1">
    <inkscape:grid
       type="xygrid"
       id="grid3966" />
  </sodipodi:namedview>
  <metadata
     id="metadata3963">
    <rdf:RDF>
      <cc:Work
         rdf:about="">
        <dc:format>image/svg+xml</dc:format>
        <dc:type
           rdf:resource="http://purl.org/dc/dcmitype/StillImage" />
        <dc:title></dc:title>
      </cc:Work>
    </rdf:RDF>
  </metadata>
  <g
     inkscape:label="Layer 1"
     inkscape:groupmode="layer"
     id="layer1">
    <g
       transform="matrix(0.7269934,0,0,-0.7269934,112.83284,149.97996)"
       inkscape:label="ink_ext_XXXXXX"
       id="g3995">
      <g
         transform="scale(0.1,0.1)"
         id="g3997">
        <path
           id="path3999"
           style="fill:#1476c6;fill-opacity:1;fill-rule:nonzero;stroke:none"
           d="m 1510.88,333.223 c 16.23,16.269 17.64,38.828 17.64,51.543 0,50.828 -30.35,129.902 -88.93,129.902 -18.37,0 -38.12,-9.18 -49.45,-23.313 -11.99,-14.832 -15.51,-33.867 -15.51,-52.246 0,-47.285 27.54,-125.652 88.27,-125.652 17.63,0 36.66,8.457 47.98,19.766 z M 1490.4,199.082 c -5.63,0.723 -9.16,0.723 -16.2,0.723 -6.36,0 -44.51,-1.426 -74.16,-11.321 -15.52,-5.644 -60.7,-22.566 -60.7,-72.703 0,-50.1287 48.73,-86.1521 124.26,-86.1521 67.75,0 103.79,32.5273 103.79,76.2381 0,36.074 -23.3,55.078 -76.99,93.215 z m 50.15,313.469 c 16.23,-13.418 50.1,-41.645 50.1,-95.317 0,-52.226 -29.65,-76.972 -59.3,-100.242 -9.18,-9.16 -19.76,-19.07 -19.76,-34.621 0,-15.508 10.58,-23.973 18.34,-30.351 l 25.45,-19.723 c 31.05,-26.137 59.27,-50.16 59.27,-98.891 C 1614.65,67.0586 1550.4,0 1428.99,0 c -102.38,0 -151.78,48.6992 -151.78,100.965 0,25.43 12.68,61.387 54.38,86.133 43.73,26.82 103.06,30.332 134.82,32.492 -9.9,12.707 -21.19,26.101 -21.19,47.976 0,11.993 3.55,19.075 7.07,27.539 -7.79,-0.703 -15.53,-1.406 -22.6,-1.406 -74.82,0 -117.19,55.793 -117.19,110.821 0,32.472 14.85,68.507 45.18,94.613 40.25,33.179 88.24,38.828 126.39,38.828 l 145.41,0 -45.18,-25.41 -43.75,0"
           inkscape:connector-curvature="0" />
        <path
           id="path4001"
           style="fill:#fbbf16;fill-opacity:1;fill-rule:nonzero;stroke:none"
           d="m 1184.18,267.469 c 16.96,22.57 21.2,50.746 21.2,78.261 0,62.024 -29.61,180.422 -117.02,180.422 -23.26,0 -46.52,-9.179 -63.42,-23.996 -27.491,-24.648 -32.452,-55.664 -32.452,-85.984 0,-69.766 34.542,-184.629 119.842,-184.629 27.48,0 55.68,13.379 71.85,35.926 z m -88.08,-57.086 c -112.057,0 -171.979,87.39 -171.979,166.355 0,92.332 75.422,171.262 182.579,171.262 103.58,0 168.44,-81.047 168.44,-166.352 0,-83.14 -64.12,-171.265 -179.04,-171.265"
           inkscape:connector-curvature="0" />
        <path
           id="path4003"
           style="fill:#ed114c;fill-opacity:1;fill-rule:nonzero;stroke:none"
           d="m 802.168,267.469 c 16.934,22.57 21.16,50.746 21.16,78.261 0,62.024 -29.605,180.422 -117.012,180.422 -23.25,0 -46.519,-9.179 -63.433,-23.996 -27.492,-24.648 -32.414,-55.664 -32.414,-85.984 0,-69.766 34.519,-184.629 119.836,-184.629 27.488,0 55.679,13.379 71.863,35.926 z m -88.106,-57.086 c -112.07,0 -171.992,87.39 -171.992,166.355 0,92.332 75.442,171.262 182.578,171.262 103.594,0 168.45,-81.047 168.45,-166.352 0,-83.14 -64.133,-171.265 -179.036,-171.265"
           inkscape:connector-curvature="0" />
        <path
           id="path4005"
           style="fill:#1476c6;fill-opacity:1;fill-rule:nonzero;stroke:none"
           d="M 488.23,221.434 386.887,198.047 C 345.77,191.672 308.938,186.008 269.98,186.008 74.3867,186.008 0,329.863 0,442.551 c 0,137.457 105.574,264.976 286.289,264.976 38.273,0 75.098,-5.644 108.391,-14.863 53.164,-14.883 77.957,-33.309 93.55,-43.934 l -58.828,-55.988 -24.793,-5.652 17.715,28.371 c -24.082,23.355 -68.047,66.578 -151.64,66.578 -111.961,0 -196.2973,-85.066 -196.2973,-209.062 0,-133.192 96.3753,-258.614 250.8403,-258.614 45.386,0 68.738,9.184 90,17.715 l 0,114.074 -106.985,-5.664 56.668,30.469 150.235,0 -18.407,-17.695 c -5,-4.239 -5.676,-5.703 -7.097,-11.328 -0.735,-6.399 -1.411,-26.954 -1.411,-34.036 l 0,-86.464"
           inkscape:connector-curvature="0" />
        <path
           id="path4007"
           style="fill:#46ae33;fill-opacity:1;fill-rule:nonzero;stroke:none"
           d="m 1764.54,241.824 c -23.42,2.141 -28.32,6.379 -28.32,34.016 l 0,401.094 c 0.13,1.531 0.25,3.093 0.41,4.57 2.83,24.793 9.92,29.031 31.89,41.816 l -101.35,0 -53.16,-25.519 54.18,0 0,-0.321 -0.04,0.243 0,-437.469 c 0,-14.16 -2.81,-16.289 -19.12,-37.531 l 125.43,0 26.23,15.57 c -12.05,1.422 -24.1,2.129 -36.15,3.531"
           inkscape:connector-curvature="0" />
        <path
           id="path4009"
           style="fill:#ed114c;fill-opacity:1;fill-rule:nonzero;stroke:none"
           d="m 1986.74,445.051 c 13.36,4.929 20.39,9.137 20.39,18.992 0,28.125 -31.66,60.527 -69.66,60.527 -28.19,0 -80.94,-21.828 -80.94,-97.832 0,-11.972 1.4,-24.64 2.13,-37.304 l 128.08,55.617 z m 66.14,-209.739 c -7.72,-4.218 -15.47,-9.16 -23.19,-12.675 -23.26,-10.547 -47.19,-13.36 -68.3,-13.36 -22.5,0 -57.69,1.426 -93.61,27.442 -49.92,35.207 -71.76,95.722 -71.76,148.504 0,109.062 88.69,162.55 161.15,162.55 25.33,0 51.41,-6.328 72.52,-19.718 35.16,-23.184 44.3,-53.438 49.22,-69.629 l -165.35,-66.875 -54.22,-4.215 c 17.58,-89.375 78.13,-141.449 144.98,-141.449 35.9,0 61.93,12.66 85.86,24.609 l -37.3,-35.184"
           inkscape:connector-curvature="0" />
        <path
           id="path4011"
           style="fill:#9f9280;fill-opacity:1;fill-rule:nonzero;stroke:none"
           d="m 2120.81,542.949 0,-46.426 -5.65,0 0,46.426 -15.37,0 0,4.824 36.37,0 0,-4.824 -15.35,0"
           inkscape:connector-curvature="0" />
        <path
           id="path4013"
           style="fill:#9f9280;fill-opacity:1;fill-rule:nonzero;stroke:none"
           d="m 2184.09,496.523 0,46.864 -0.24,0 -14.31,-46.864 -4.4,0 -14.43,46.864 -0.2,0 0,-46.864 -5.11,0 0,51.25 8.77,0 13.06,-41.425 0.18,0 12.85,41.425 8.91,0 0,-51.25 -5.08,0"
           inkscape:connector-curvature="0" />
      </g>
    </g>
    <g
       transform="matrix(0.09225998,0,0,-0.09225998,250.97038,185.12536)"
       inkscape:label="ink_ext_XXXXXX"
       id="g4052">
      <g
         transform="scale(0.111725,0.111725)"
         id="g4054">
        <path
           id="path4056"
           style="fill:#f25022;fill-opacity:1;fill-rule:nonzero;stroke:none"
           d="m 0,3132.7 1490.27,0 c -0.09,-496.75 0,-993.51 -0.09,-1490.27 -496.664,0 -993.422,0 -1490.18,0 L 0,3132.7"
           inkscape:connector-curvature="0" />
        <path
           id="path4058"
           style="fill:#fefefe;fill-opacity:1;fill-rule:nonzero;stroke:none"
           d="m 1490.27,3132.7 152.16,0 c 0,-496.75 -0.09,-993.51 0.09,-1490.27 496.67,0 993.43,0.09 1490.09,0 0.18,496.76 0.09,993.52 0.09,1490.27 l 11537.3,0 0,-1159.01 c -106.3,-0.35 -212.7,0.81 -318.9,-0.71 -2.4,134.52 -0.3,269.05 -1.2,403.49 -106.3,-32.04 -212,-66.15 -318.9,-96.58 -2.6,-102.03 -0.2,-204.16 -1.3,-306.2 -157.2,0.09 -314.4,-0.18 -471.5,0.18 1.9,80.38 -5.6,161.38 6,241.31 9.5,63.01 46,126.02 107.5,150.37 77.4,31.77 163.9,10.65 237.5,-21.75 -0.4,92.1 0.7,184.2 -0.6,276.22 -154.9,42.6 -332.4,34.27 -469.8,-55.14 -88.6,-56.75 -152.8,-147.51 -181.7,-248.11 -34.2,-111.44 -16.8,-229.14 -22.2,-343.52 -74.6,0.53 -149.1,1.25 -223.4,-0.45 0.8,-86.11 0.4,-172.21 0.1,-258.23 74.8,-1.52 149.6,0.27 224.3,-1.16 -0.6,-362.32 -0.1,-724.551 -0.1,-1086.871 107.4,0 214.9,0 322.3,0 0,362.41 -0.1,724.821 0.1,1087.231 157.1,0.27 314.4,0.18 471.7,0.09 0.4,-231.02 -0.5,-461.94 0.3,-692.87 1.4,-107.584 19.8,-222.599 91,-307.541 61.7,-75.183 159.6,-109.554 254.1,-116.535 99.7,-7.07 202.6,5.102 294.7,45.109 L 14670,0 3132.7,0 c 0,496.758 0,993.516 0,1490.27 -496.75,0 -993.51,0.09 -1490.18,-0.09 -0.18,-496.664 0,-993.422 -0.09,-1490.18 l -152.16,0 c 0,496.758 0.09,993.426 0,1490.18 -496.754,0.27 -993.512,0 -1490.27,0.18 l 0,152.07 c 496.758,0 993.516,0 1490.18,0 0.09,496.76 0,993.52 0.09,1490.27"
           inkscape:connector-curvature="0" />
        <path
           id="path4060"
           style="fill:#80ba01;fill-opacity:1;fill-rule:nonzero;stroke:none"
           d="m 1642.43,3132.7 1490.27,0 c 0,-496.75 0.09,-993.51 -0.09,-1490.27 -496.66,0.09 -993.42,0 -1490.09,0 -0.18,496.76 -0.09,993.52 -0.09,1490.27"
           inkscape:connector-curvature="0" />
        <path
           id="path4062"
           style="fill:#777777;fill-opacity:1;fill-rule:nonzero;stroke:none"
           d="m 13438.8,2564.88 c 137.4,89.41 314.9,97.74 469.8,55.14 1.3,-92.02 0.2,-184.12 0.6,-276.22 -73.6,32.4 -160.1,53.52 -237.5,21.75 -61.5,-24.35 -98,-87.36 -107.5,-150.37 -11.6,-79.93 -4.1,-160.93 -6,-241.31 157.1,-0.36 314.3,-0.09 471.5,-0.18 1.1,102.04 -1.3,204.17 1.3,306.2 106.9,30.43 212.6,64.54 318.9,96.58 0.9,-134.44 -1.2,-268.97 1.2,-403.49 106.2,1.52 212.6,0.36 318.9,0.71 l 0,-261.71 c -106.7,4.38 -213.5,1.16 -320.2,1.52 0.5,-150.46 0.1,-300.92 0.2,-451.47 1.7,-83.33 -4.5,-167.1 5.3,-250.17 5.9,-48.958 23.7,-103.196 69.6,-128.528 76.9,-43.051 174.5,-24.254 245.1,23.004 l 0,-264.313 c -92.1,-40.007 -195,-52.179 -294.7,-45.109 -94.5,6.981 -192.4,41.352 -254.1,116.535 -71.2,84.942 -89.6,199.957 -91,307.541 -0.8,230.93 0.1,461.85 -0.3,692.87 -157.3,0.09 -314.6,0.18 -471.7,-0.09 -0.2,-362.41 -0.1,-724.821 -0.1,-1087.231 -107.4,0 -214.9,0 -322.3,0 0,362.32 -0.5,724.551 0.1,1086.871 -74.7,1.43 -149.5,-0.36 -224.3,1.16 0.3,86.02 0.7,172.12 -0.1,258.23 74.3,1.7 148.8,0.98 223.4,0.45 5.4,114.38 -12,232.08 22.2,343.52 28.9,100.6 93.1,191.36 181.7,248.11"
           inkscape:connector-curvature="0" />
        <path
           id="path4064"
           style="fill:#777777;fill-opacity:1;fill-rule:nonzero;stroke:none"
           d="m 6538.13,2546.08 c 64.98,9.85 135.33,-12.35 178.39,-63.19 50.48,-55.67 59.78,-144.28 22.37,-209.35 -41.35,-73.4 -133.9,-107.5 -214.54,-89.87 -83.69,15.04 -153.42,92.82 -149.66,179.55 -2.41,91.3 73.93,172.66 163.44,182.86"
           inkscape:connector-curvature="0" />
        <path
           id="path4066"
           style="fill:#777777;fill-opacity:1;fill-rule:nonzero;stroke:none"
           d="m 4068.04,2506.16 c 156.28,0 312.46,0 468.74,0 145.9,-370.46 292.86,-740.57 438.93,-1111.04 37.33,-92.63 72.24,-186.34 111.35,-278.27 187.7,462.93 378.08,924.69 564.33,1388.24 150.29,2.41 300.66,0.53 451.02,0.89 -0.35,-626.45 -0.17,-1252.9 -0.08,-1879.351 -108.49,0.269 -216.88,-0.895 -325.27,0.629 1.17,462.292 -0.09,924.592 0.54,1386.982 0.18,20.76 -0.54,41.53 -1.97,62.3 -6.35,-9.67 -11.99,-19.7 -16.92,-30.08 -186.26,-473.22 -376.1,-945.09 -561.29,-1418.757 -77.15,-2.773 -154.4,-0.18 -231.64,-1.43 -192.17,473.217 -381.92,947.507 -573.1,1421.087 -5.02,9.84 -10.39,19.42 -16.2,28.64 -3.94,-202.55 -0.63,-405.29 -1.71,-607.84 0.09,-280.51 -0.17,-561.019 0.09,-841.531 -102.3,-0.266 -204.61,0 -306.82,-0.09 -0.09,626.541 -0.18,1253.081 0,1879.621"
           inkscape:connector-curvature="0" />
        <path
           id="path4068"
           style="fill:#777777;fill-opacity:1;fill-rule:nonzero;stroke:none"
           d="m 7425.13,1974.95 c 155.57,44.3 323.3,42.51 478.77,-1.44 32.04,-8.95 63.1,-21.39 91.92,-38.31 -1.79,-102.66 0,-205.41 -0.98,-308.16 -103.92,79.39 -235.76,129.69 -367.87,113.04 -104.9,-9.49 -204.97,-63.9 -267.71,-148.67 -80.65,-105.08 -99.26,-244.62 -85.39,-373.15 10.38,-100.6 52,-201.12 130.23,-267.799 81.27,-72.231 195.21,-97.828 301.54,-89.773 105.08,12.082 204.25,56.566 289.2,118.683 0.89,-97.293 -0.45,-194.586 0.71,-291.879 -131.75,-78.406 -289.73,-98.633 -440.55,-91.203 -154.3,8.145 -308.16,66.59 -419.87,175.07 -121.36,116.985 -187.24,283.821 -195.03,450.931 -7.88,173.73 27.48,354.98 127.46,500.07 83.78,123.79 214.81,211.41 357.57,252.59"
           inkscape:connector-curvature="0" />
        <path
           id="path4070"
           style="fill:#777777;fill-opacity:1;fill-rule:nonzero;stroke:none"
           d="m 9608.8,1998.13 c 154.67,19.69 317.84,10.92 461.4,-54.42 124.6,-56.21 225.6,-160.13 281.5,-284.54 59.7,-132.47 74.2,-281.23 64.1,-424.88 -9.9,-140.26 -54,-280.786 -141.7,-392.22 -89.8,-118.328 -225.1,-198.523 -370.01,-228.328 -123.88,-25.777 -253.48,-25.687 -377.36,0.356 -148.22,31.687 -285.44,117.703 -372.34,242.832 -102.04,145 -131.04,329.38 -118.06,503.11 8.77,147.42 54.6,296 148.76,411.64 103.11,129.51 261.26,205.95 423.71,226.45"
           inkscape:connector-curvature="0" />
        <path
           id="path4072"
           style="fill:#777777;fill-opacity:1;fill-rule:nonzero;stroke:none"
           d="m 10945.8,1995.44 c 149.1,26.23 305.1,6.98 446.1,-46.45 0.2,-98.81 0,-197.54 0.1,-296.27 -98.5,67.76 -218.9,104.19 -338.5,99.98 -60.2,-2.32 -126.5,-27.83 -153.9,-85.12 -21.9,-56.65 -6.7,-130.94 46.7,-164.87 91.4,-61.13 200.4,-87.09 295.1,-141.86 74.5,-41.89 146.9,-96.67 184.6,-175.62 71,-147.86 40.9,-343.25 -83.8,-453.519 -119.2,-111.348 -290.7,-142.137 -448.5,-136.231 -112.1,7.25 -224.7,29.36 -327.7,75.188 0.4,103.914 -0.6,207.742 0.5,311.57 86.7,-62.926 186.6,-107.945 292.4,-126.203 73.7,-11.996 153.8,-12.531 222.5,20.406 65.7,32.668 77.5,126.019 38.4,183.129 -36.5,44.04 -90.1,68.29 -140.7,92.1 -94.9,42.7 -194.7,78.41 -278.1,142.4 -58.7,45.74 -103.1,110.19 -120.4,182.86 -25.8,107.14 -17.8,227.89 44.5,321.51 71.2,109.11 194.8,174.54 320.7,197"
           inkscape:connector-curvature="0" />
        <path
           id="path4074"
           style="fill:#777777;fill-opacity:1;fill-rule:nonzero;stroke:none"
           d="m 12177.7,1998.57 c 160.9,19.97 331.6,9.13 478.4,-64.98 128,-63.99 227.3,-179.63 276.9,-313.36 38.7,-102.3 52.3,-212.75 50.1,-321.68 0.3,-162.72 -43.7,-329.738 -145.8,-458.808 -95.6,-124.949 -241.9,-206.129 -396.3,-231.64 -151,-24.434 -310.5,-18.079 -453.9,38.398 -145.4,57.195 -266.2,173.91 -327.4,317.656 -63.9,146.524 -70.6,311.394 -50.7,467.934 20.8,156.55 91.7,309.6 212.6,413.7 99,86.91 226.4,136.14 356.1,152.78"
           inkscape:connector-curvature="0" />
        <path
           id="path4076"
           style="fill:#777777;fill-opacity:1;fill-rule:nonzero;stroke:none"
           d="m 8716.52,1953.02 c 88.97,53.43 202.02,57.91 299.13,25.24 -0.45,-107.5 0,-214.99 -0.27,-322.49 -63.55,41.17 -142.85,58.8 -217.85,51.19 -91.48,-10.38 -163.98,-80.64 -201.57,-161.19 -40.82,-85.31 -48.51,-181.79 -45.92,-275.06 0,-214.72 0.09,-429.444 0,-644.171 -105.97,0 -211.86,0 -317.74,0 -0.27,448.781 0.35,897.661 -0.27,1346.441 106.06,1.34 212.13,0.8 318.19,0.27 -0.45,-77.07 0,-154.13 -0.27,-231.29 34.46,83.87 85.75,165.32 166.57,211.06"
           inkscape:connector-curvature="0" />
        <path
           id="path4078"
           style="fill:#777777;fill-opacity:1;fill-rule:nonzero;stroke:none"
           d="m 6403.96,1973.25 c 106.87,0.44 213.83,1.52 320.7,-0.54 -1.25,-448.69 -0.09,-897.48 -0.54,-1346.171 -106.69,0 -213.38,0 -319.98,0 -0.27,448.871 0.09,897.751 -0.18,1346.711"
           inkscape:connector-curvature="0" />
        <path
           id="path4080"
           style="fill:#fefefe;fill-opacity:1;fill-rule:nonzero;stroke:none"
           d="m 9704.93,1742.32 c 96.85,6.36 199.96,-21.03 269.6,-91.48 74.47,-73.21 103.27,-179.45 111.27,-280.77 5.7,-110.9 1.1,-226.45 -45.4,-329.21 -30.8,-69.274 -87.18,-127.813 -158.33,-155.559 -83.24,-31.953 -176.78,-33.832 -262.7,-11.547 -87.45,23.004 -161.65,86.195 -202.02,166.656 -51.91,103.65 -59.7,223.5 -48.96,337.17 9.76,103.38 45.74,209.72 124.5,281.05 57.11,53.35 134.98,79.39 212.04,83.69"
           inkscape:connector-curvature="0" />
        <path
           id="path4082"
           style="fill:#fefefe;fill-opacity:1;fill-rule:nonzero;stroke:none"
           d="m 12264.7,1742.05 c 91,6.36 188.2,-14.68 258.2,-76.17 64.6,-53.52 100.3,-133.72 116.7,-214.45 18.4,-94.7 18.2,-192.71 2.6,-287.86 -12.3,-70.88 -36.8,-141.59 -83.3,-197.715 -46.8,-56.386 -116.4,-90.757 -188.3,-101.32 -77.2,-11.543 -158.4,-5.996 -230.6,25.063 -77.8,32.937 -138.2,100.336 -169.9,177.852 -38.3,92.37 -45.9,194.67 -38.3,293.49 7.4,95.68 34.5,193.86 97.7,268.24 57.6,69.46 146.1,107.86 235.2,112.87"
           inkscape:connector-curvature="0" />
        <path
           id="path4084"
           style="fill:#fefefe;fill-opacity:1;fill-rule:nonzero;stroke:none"
           d="m 14349.8,1713.5 c 106.7,-0.36 213.5,2.86 320.2,-1.52 l 0,-805.644 c -70.6,-47.258 -168.2,-66.055 -245.1,-23.004 -45.9,25.332 -63.7,79.57 -69.6,128.528 -9.8,83.07 -3.6,166.84 -5.3,250.17 -0.1,150.55 0.3,301.01 -0.2,451.47"
           inkscape:connector-curvature="0" />
        <path
           id="path4086"
           style="fill:#02a4ef;fill-opacity:1;fill-rule:nonzero;stroke:none"
           d="m 0,1490.36 c 496.758,-0.18 993.516,0.09 1490.27,-0.18 0.09,-496.754 0,-993.422 0,-1490.18 L 0,0 0,1490.36"
           inkscape:connector-curvature="0" />
        <path
           id="path4088"
           style="fill:#ffb902;fill-opacity:1;fill-rule:nonzero;stroke:none"
           d="m 1642.52,1490.18 c 496.67,0.18 993.43,0.09 1490.18,0.09 0,-496.754 0,-993.512 0,-1490.27 L 1642.43,0 c 0.09,496.758 -0.09,993.516 0.09,1490.18"
           inkscape:connector-curvature="0" />
      </g>
    </g>
    <g
       transform="matrix(0.14672213,0,0,-0.14672213,88.085077,249.40336)"
       inkscape:label="intel"
       id="g4136">
      <g
         id="g4138">
        <g
           clip-path="url(#clipPath4142)"
           id="g4140">
          <g
             transform="translate(587.5938,461.9053)"
             id="g4146">
            <path
               id="path4148"
               style="fill:#0f7dc2;fill-opacity:1;fill-rule:nonzero;stroke:none"
               d="m 0,0 c -26.697,130.341 -279.771,138.604 -442.907,39.3 l 0,-10.968 c 162.949,83.774 394.085,83.265 415.129,-36.803 7.06,-39.718 -15.313,-81.097 -55.283,-104.923 l 0,-31.154 C -34.979,-126.912 14.339,-69.87 0,0 m -296.497,-228.142 c -112.55,-10.382 -229.86,5.971 -246.292,93.93 -8.038,43.36 11.743,89.34 37.946,117.92 l 0,15.261 c -47.204,-41.4 -72.785,-93.783 -58.051,-155.661 18.823,-79.368 119.477,-124.313 273.156,-109.388 60.829,5.894 140.382,25.454 195.723,55.852 l 0,43.153 c -50.227,-29.927 -133.287,-54.648 -202.482,-61.067"
               inkscape:connector-curvature="0" />
          </g>
          <g
             transform="translate(484.4795,480.8857)"
             id="g4150">
            <path
               id="path4152"
               style="fill:#0f7dc2;fill-opacity:1;fill-rule:nonzero;stroke:none"
               d="m 0,0 -29.51,0 0,-131.432 c 0,-15.403 7.447,-28.797 29.51,-30.938 L 0,0 z"
               inkscape:connector-curvature="0" />
          </g>
          <g
             transform="translate(133.1001,432.8975)"
             id="g4154">
            <path
               id="path4156"
               style="fill:#0f7dc2;fill-opacity:1;fill-rule:nonzero;stroke:none"
               d="m 0,0 -29.564,0 -0.016,-85.869 c 0,-15.457 7.47,-28.837 29.58,-30.939 L 0,0 z"
               inkscape:connector-curvature="0" />
          </g>
          <path
             id="path4158"
             style="fill:#0f7dc2;fill-opacity:1;fill-rule:nonzero;stroke:none"
             d="m 103.536,448.915 29.472,0 0,27.973 -29.472,0 0,-27.973 z"
             inkscape:connector-curvature="0" />
          <g
             transform="translate(309.8301,317.4502)"
             id="g4160">
            <path
               id="path4162"
               style="fill:#0f7dc2;fill-opacity:1;fill-rule:nonzero;stroke:none"
               d="m 0,0 c -23.885,0 -33.994,16.601 -33.994,32.955 l 0,114.014 29.253,0 0,-31.522 22.031,0 0,-23.628 -22.031,0 0,-57.056 c 0,-6.668 3.166,-10.383 10.119,-10.383 l 11.912,0 L 17.29,0 0,0"
               inkscape:connector-curvature="0" />
          </g>
          <g
             transform="translate(387.4375,410.6606)"
             id="g4164">
            <path
               id="path4166"
               style="fill:#0f7dc2;fill-opacity:1;fill-rule:nonzero;stroke:none"
               d="m 0,0 c -10.013,0 -17.706,-5.157 -20.967,-12.113 -1.899,-4.181 -2.595,-7.439 -2.811,-12.577 l 45.084,0 C 20.734,-12.113 15.032,0 0,0 m -23.778,-44.636 c 0,-14.971 9.362,-25.972 25.924,-25.972 12.979,0 19.376,3.601 26.869,11.001 L 47.092,-76.826 C 35.503,-88.275 23.359,-95.235 1.931,-95.235 c -27.995,0 -54.819,15.279 -54.819,59.823 0,38.081 23.44,59.607 54.169,59.607 31.24,0 49.194,-25.199 49.194,-58.278 l 0,-10.553 -74.253,0"
               inkscape:connector-curvature="0" />
          </g>
          <g
             transform="translate(212.5522,409.2695)"
             id="g4168">
            <path
               id="path4170"
               style="fill:#0f7dc2;fill-opacity:1;fill-rule:nonzero;stroke:none"
               d="m 0,0 c 8.578,0 12.144,-4.241 12.144,-11.124 l 0,-80.866 29.259,0 0,81.036 c 0,16.42 -8.749,34.551 -34.443,34.551 l -60.441,0.031 0,-115.618 29.271,0 0,91.99 L 0,0 z"
               inkscape:connector-curvature="0" />
          </g>
          <g
             transform="translate(518.5938,472.168)"
             id="g4172">
            <path
               id="path4174"
               style="fill:#0f7dc2;fill-opacity:1;fill-rule:nonzero;stroke:none"
               d="m 0,0 c 0,1.417 -0.881,1.865 -2.766,1.865 l -1.36,0 -0.51,0 0,-4.024 c 0.294,0 1.623,-0.062 1.87,-0.062 1.885,0 2.766,0.629 2.766,1.973 L 0,0 z m 2.843,-10.062 -2.195,0 c -0.2,0 -0.37,0.124 -0.447,0.293 l -2.967,5.045 c -0.092,0.108 -0.339,0.232 -0.417,0.232 l -0.865,0 -0.494,0 0,-5.029 c 0,-0.248 -0.171,-0.541 -0.494,-0.541 l -1.979,0 c -0.294,0 -0.494,0.293 -0.494,0.541 l 0,12.684 c 0,0.742 0.247,1.047 0.896,1.14 0.711,0.077 2.565,0.17 3.6,0.17 3.661,0 5.81,-1.078 5.81,-4.473 l 0,-0.248 c 0,-2.097 -1.035,-3.24 -2.642,-3.75 l 3.09,-5.26 c 0.046,-0.078 0.077,-0.263 0.077,-0.372 0,-0.201 -0.108,-0.432 -0.479,-0.432 M -2.363,6.76 c -5.362,0 -9.673,-4.431 -9.673,-9.784 0,-5.385 4.311,-9.738 9.673,-9.738 5.36,0 9.81,4.353 9.81,9.738 0,5.353 -4.45,9.784 -9.81,9.784 m 0,-21.527 c -6.505,0 -11.698,5.246 -11.698,11.743 0,6.465 5.193,11.742 11.698,11.742 6.472,0 11.788,-5.277 11.788,-11.742 0,-6.497 -5.316,-11.743 -11.788,-11.743"
               inkscape:connector-curvature="0" />
          </g>
        </g>
      </g>
    </g>
    <g
       transform="matrix(0.46076762,0,0,-0.46076762,169.39649,244.46143)"
       inkscape:label="facebook"
       id="g4314">
      <g
         id="g4316">
        <g
           clip-path="url(#clipPath4320)"
           id="g4318">
          <path
             id="path4324"
             style="fill:#155da1;fill-opacity:1;fill-rule:nonzero;stroke:none"
             d="m 251.247,367.375 302.391,0 0,-113.531 -302.391,0"
             inkscape:connector-curvature="0" />
          <path
             id="path4326"
             style="fill:#ffffff;fill-opacity:1;fill-rule:nonzero;stroke:none"
             d="m 473.716,311.066 c -3.377,0 -4.549,-1.843 -4.549,-4.136 l 0,-8.379 c 0,-2.301 1.172,-4.149 4.549,-4.149 3.373,0 4.566,1.848 4.566,4.149 l 0,8.379 c 0,2.293 -1.193,4.136 -4.566,4.136 m 47.193,-24.492 -10.779,0 -9.113,15.192 0,-15.192 -9.944,0 0,45.585 9.944,1.655 0,-29.345 9.113,14.427 10.779,0 -9.951,-15.744 9.951,-16.578 z m -32.685,12.938 c 0,-6.754 -2.795,-13.305 -14.473,-13.305 -11.689,0 -14.535,6.551 -14.535,13.305 l 0,6.521 c 0,6.756 2.846,13.308 14.535,13.308 11.678,0 14.473,-6.552 14.473,-13.308 l 0,-6.521 z m -31.844,0 c 0,-6.754 -2.793,-13.305 -14.475,-13.305 -11.689,0 -14.533,6.551 -14.533,13.305 l 0,6.521 c 0,6.756 2.844,13.308 14.533,13.308 11.682,0 14.475,-6.552 14.475,-13.308 l 0,-6.521 z m -31.869,0.172 c 0,-7.83 -2.24,-13.541 -15.815,-13.541 -4.898,0 -7.777,0.431 -13.187,1.263 l 0,44.753 9.941,1.655 0,-15.653 c 2.149,0.798 4.93,1.202 7.461,1.202 9.945,0 11.6,-4.453 11.6,-11.605 l 0,-8.074 z m -32.328,0.152 -18.236,0 0,-0.668 c 0,-3.781 1.348,-4.766 5.804,-4.766 4.008,0 6.452,0.196 11.6,1.082 l 0,-8.078 c -4.964,-1.013 -7.55,-1.279 -12.424,-1.279 -10.678,0 -14.924,5.607 -14.924,13.709 l 0,6.635 c 0,7.086 3.152,12.892 14.092,12.892 10.942,0 14.088,-5.738 14.088,-12.892 l 0,-6.635 z m -31.121,10.168 c -5.159,0.883 -6.639,1.078 -9.121,1.078 -4.458,0 -5.804,-0.984 -5.804,-4.762 l 0,-7.152 c 0,-3.781 1.346,-4.766 5.804,-4.766 2.482,0 3.962,0.196 9.121,1.082 l 0,-8.078 c -4.519,-1.013 -7.461,-1.279 -9.949,-1.279 -10.677,0 -14.92,5.607 -14.92,13.709 l 0,5.803 c 0,8.107 4.243,13.724 14.92,13.724 2.488,0 5.43,-0.268 9.949,-1.282 l 0,-8.077 z m -28.185,-23.492 -8.288,0 -0.358,2.093 c -3.786,-2.093 -7.164,-2.433 -9.39,-2.433 -6.08,0 -9.316,4.055 -9.316,9.664 0,6.615 3.776,8.977 10.53,8.977 l 6.874,0 0,1.429 c 0,3.379 -0.388,4.369 -5.588,4.369 l -8.504,0 0.832,8.285 9.294,0 c 11.412,0 13.914,-3.601 13.914,-12.72 l 0,-19.664 z m -33.988,0.062 -9.944,0 0,24.037 -4.97,0 0,8.285 4.97,0 0,4.973 c 0,6.758 2.806,10.777 10.776,10.777 l 6.636,0 0,-8.285 -4.146,0 c -3.104,0 -3.31,-1.158 -3.31,-3.318 l -0.012,-4.147 7.516,0 -0.88,-8.285 -6.636,0 0,-24.037 z m 142.983,24.492 c -3.383,0 -4.555,-1.843 -4.555,-4.136 l 0,-8.379 c 0,-2.301 1.172,-4.149 4.555,-4.149 3.373,0 4.555,1.848 4.555,4.149 l 0,8.379 c 0,2.293 -1.182,4.136 -4.555,4.136 M 315.469,295.965 c 0,-1.813 0.856,-2.754 2.748,-2.754 2.03,0 3.23,0.66 4.712,1.34 l 0,3.629 -4.438,0 c -2.1,0 -3.022,-0.389 -3.022,-2.215 m 62.626,15.937 c -3.378,0 -4.148,-1.851 -4.148,-4.144 l 0,-1.287 8.292,0 0,1.287 c 0,2.293 -0.77,4.144 -4.144,4.144 m 32.328,-0.836 c -2.029,0 -3.49,-0.664 -4.973,-1.339 l 0,-15.309 c 1.422,-0.139 2.233,-0.139 3.582,-0.139 4.869,0 5.535,2.229 5.535,5.336 l 0,7.315 c 0,2.293 -0.761,4.136 -4.144,4.136"
             inkscape:connector-curvature="0" />
          <path
             id="path4328"
             style="fill:#ffffff;fill-opacity:1;fill-rule:nonzero;stroke:none"
             d="m 525.997,289.285 0.397,0 c 0.447,0 0.83,0.164 0.83,0.586 0,0.301 -0.219,0.6 -0.83,0.6 -0.178,0 -0.303,-0.014 -0.397,-0.028 l 0,-1.158 z m 0,-1.894 -0.543,0 0,3.422 c 0.285,0.041 0.557,0.08 0.965,0.08 0.519,0 0.859,-0.108 1.064,-0.258 0.205,-0.151 0.311,-0.381 0.311,-0.709 0,-0.449 -0.297,-0.721 -0.664,-0.832 l 0,-0.028 c 0.299,-0.054 0.504,-0.324 0.57,-0.828 0.082,-0.533 0.164,-0.738 0.219,-0.847 l -0.572,0 c -0.082,0.109 -0.166,0.423 -0.233,0.871 -0.082,0.437 -0.299,0.601 -0.738,0.601 l -0.379,0 0,-1.472 z m 0.572,4.375 c -1.345,0 -2.451,-1.159 -2.451,-2.59 0,-1.457 1.106,-2.602 2.467,-2.602 1.361,-0.013 2.451,1.145 2.451,2.59 0,1.443 -1.09,2.602 -2.451,2.602 l -0.016,0 z m 0.016,0.476 c 1.674,0 3.008,-1.363 3.008,-3.066 0,-1.729 -1.334,-3.078 -3.024,-3.078 -1.673,0 -3.037,1.349 -3.037,3.078 0,1.703 1.364,3.066 3.037,3.066 l 0.016,0 z"
             inkscape:connector-curvature="0" />
        </g>
      </g>
    </g>
    <g
       transform="matrix(0.7269934,0,0,-0.7269934,37.45315,88.246882)"
       inkscape:label="ink_ext_XXXXXX"
       id="g4365">
      <g
         transform="scale(0.1,0.1)"
         id="g4367">
        <path
           id="path4369"
           style="fill:#231f20;fill-opacity:1;fill-rule:evenodd;stroke:none"
           d="m 6.33984,9.24609 2541.32996,0 0,638.828 -2541.32996,0 0,-638.828 z"
           inkscape:connector-curvature="0" />
        <path
           id="path4371"
           style="fill:#ffffff;fill-opacity:1;fill-rule:evenodd;stroke:none"
           d="m 803.25,354.391 0,42.281 40.562,-0.004 0,60.598 55.418,17.394 0,-77.992 61.102,0 0,-42.277 -61.102,0 0,-134.243 c 0,-25.132 6.848,-36.5 27.223,-36.5 15.074,0 28.742,7.235 33.41,10.325 l 15.657,-41.692 c -9.34,-5.363 -29.266,-14.582 -59.036,-14.582 -51.687,0 -72.672,28.113 -72.672,73.508 l 0,143.184 -40.562,0"
           inkscape:connector-curvature="0" />
        <path
           id="path4373"
           style="fill:#ffffff;fill-opacity:1;fill-rule:evenodd;stroke:none"
           d="m 1112.99,359.582 c -44.84,0 -61.6,-38.219 -61.6,-88.254 0,-50.144 19.39,-89.84 64.25,-89.84 45.42,0 64.17,37.61 64.17,88.293 0,50.035 -21.37,89.801 -66.82,89.801 l 0,0 z m 2.13,-221.887 c -87.28,0 -122.241,69.907 -122.241,132.086 0,62.071 33.851,133.141 121.161,133.141 86.69,0 124.85,-69.41 124.85,-131.594 0,-61.621 -37.02,-133.633 -123.77,-133.633"
           inkscape:connector-curvature="0" />
        <path
           id="path4375"
           style="fill:#ffffff;fill-opacity:1;fill-rule:evenodd;stroke:none"
           d="m 1733.8,301.648 c -1.08,31.864 -14.67,58.868 -51.73,58.868 -33.98,0 -52.73,-22.918 -58.5,-58.868 l 110.23,0 z m -40.23,-120.769 c 34.98,0 56.32,13.09 67.89,19.996 l 19.28,-38.219 c -14.67,-8.836 -41.72,-24.961 -90.87,-24.961 -82.5,0 -126.37,56.274 -126.37,134.141 0,77.316 50.66,131.094 119.63,131.094 74.08,0 112.24,-53.782 104.37,-141.145 l -165.47,-0.004 c 2.54,-45.781 23.52,-80.902 71.54,-80.902"
           inkscape:connector-curvature="0" />
        <path
           id="path4377"
           style="fill:#ffffff;fill-opacity:1;fill-rule:evenodd;stroke:none"
           d="m 2261.8,185.633 -71.82,97.41 59.13,70.848 c 12.5,0.996 29.98,3.089 40.41,5.691 l 0,37.078 -67.5,0 -89.68,-110.25 0,233.535 c -30.56,1.383 -64.17,-0.218 -91.89,-2.82 l 0,-36.008 c 12.81,-1.152 26.37,-2.754 36.5,-4.469 l 0,-291.578 c -12.54,-0.879 -25.43,-2.761 -37.05,-5.136 l 0,-36.164 92.44,0 0,132.152 94.57,-132.145 74.46,0 0,35.063 c -14.1,3.14 -28.16,5.137 -39.57,6.793"
           inkscape:connector-curvature="0" />
        <path
           id="path4379"
           style="fill:#ffffff;fill-opacity:1;fill-rule:evenodd;stroke:none"
           d="m 699.016,143.273 c -1.547,6.407 -4.172,24.133 -4.778,35.559 -12.449,-16.727 -38.574,-41.746 -81.48,-41.746 -54.75,0 -75.125,35.566 -75.125,80.512 l -0.004,135.742 c -12.531,2.094 -29.293,4.246 -42.352,5.137 l 0,34.457 c 27.223,2.593 64.282,4.75 97.657,3.203 l 0,-167.211 c 0,-28.051 10.019,-44.289 38.714,-44.289 31.809,0 55.883,31.375 61.075,38.101 l 0,131.098 c -10.938,1.598 -26.586,3.75 -39.676,4.633 l 0,34.465 c 27.082,3.726 63.258,4.75 95.031,3.726 l 0,-210.48 c 12.039,-2.039 28.223,-4.141 41.836,-5.301 l 0,-33.961 c -26.695,-3.141 -60.605,-5.137 -90.898,-3.645"
           inkscape:connector-curvature="0" />
        <path
           id="path4381"
           style="fill:#ffffff;fill-opacity:1;fill-rule:evenodd;stroke:none"
           d="m 1448.47,213.293 c -6.27,-8.332 -25.57,-29.656 -54.32,-29.656 -41.74,0 -60.08,34.465 -60.08,86.648 0,52.735 22.45,87.688 63.25,87.688 26.65,0 41.25,-10.438 51.14,-19.219 l 0,-125.461 0.01,0 z m 56.05,-26.672 c -0.5,6.191 -0.67,13.149 -0.67,20.492 l 0,311.836 c -33.43,1.492 -71.07,-0.496 -100.33,-3.758 l 0,-33.957 c 15.16,-1.054 32.36,-3.207 44.95,-5.187 l 0,-92.938 c -9.41,7.786 -27.66,19.825 -61.13,19.825 -64.2,0 -112.32,-52.68 -112.32,-133.141 0,-84.656 41.88,-132.09 103.98,-132.09 33.99,0 56.88,16.125 72.12,34.352 0.49,-8.899 3.04,-22.367 5.16,-28.278 30.78,-1.543 62.73,0.661 89.82,3.59 l 0,34.129 c -13.26,1.047 -29.68,3.109 -41.58,5.125"
           inkscape:connector-curvature="0" />
        <path
           id="path4383"
           style="fill:#ffffff;fill-opacity:1;fill-rule:evenodd;stroke:none"
           d="m 269.25,270.176 34.762,95.699 c 10.496,28.656 14.109,41.25 19.824,60.027 l 1.051,0 c 5.773,-18.285 9.504,-30.867 19.769,-60.027 l 34.711,-95.699 -110.117,0 z m 204.18,-86.539 -119.879,308.035 -54.645,0 -117.539,-308.035 c -9.441,-1.094 -20.984,-3.262 -29.355,-5.899 l 0,-33.961 125.273,0 0,33.961 c -11.902,2.645 -26.07,5.407 -38.625,6.407 l 14.688,40.093 143.05,-0.004 14.879,-40.586 c -12.531,-1.097 -23.941,-3.265 -35.48,-5.902 l 0,-33.961 129.41,-0.004 0,33.961 c -7.168,2.145 -24.426,5.895 -31.777,5.895"
           inkscape:connector-curvature="0" />
        <path
           id="path4385"
           style="fill:#ffffff;fill-opacity:1;fill-rule:evenodd;stroke:none"
           d="m 1930.8,293.312 c -28.41,11.043 -50.83,17.719 -50.83,37.829 0,18.836 19.02,29.488 44.12,29.488 13.94,0 27.75,-2.656 37.91,-6.301 1.47,-10.769 2.82,-27.113 5.08,-31.64 l 36.65,0 0,59.703 c -9.97,6.074 -38.43,20.531 -81.89,20.531 -53.86,0 -92.95,-31.199 -92.95,-75.926 0,-40.148 25.13,-60.91 63.4,-74.437 38.96,-14.028 69.53,-23.59 69.53,-43.403 0,-19.058 -16.26,-30.047 -48.65,-30.047 -13.35,0 -29.82,2.594 -39.92,6.305 -1.66,11.871 -4.04,30.098 -6.76,34.895 l -36.64,0 0,-61.899 c 16.29,-10.277 47.24,-21.539 86.75,-21.539 59.47,0 97.38,30.481 97.38,78.469 -0.02,42.848 -42.12,61.957 -83.18,77.972"
           inkscape:connector-curvature="0" />
        <path
           id="path4387"
           style="fill:#ffffff;fill-opacity:1;fill-rule:evenodd;stroke:none"
           d="m 2357.45,359.418 c 5.44,0 11.04,0.824 11.04,7.699 0,4.637 -2.37,7.703 -8.99,7.703 l -7.12,0 0,-15.41 5.07,0 0,0.008 z m -13,22.055 16.59,0 c 10.54,0 16,-6.539 16,-14.239 0,-7.457 -5.12,-11.988 -13.04,-13.121 2.02,-1.574 3.75,-3.613 5.9,-6.679 l 11.16,-16.293 -9.48,0 -11.68,17.421 c -2.46,3.61 -3.81,4.856 -7.54,4.856 l 0,-22.285 -7.92,0 0,50.34 0.01,0 z m 50.67,-25.567 c 0,20.821 -15.08,35.758 -35.3,35.758 -20.12,0 -35.16,-14.934 -35.16,-35.758 0,-20.894 15.04,-35.73 35.16,-35.73 20.22,0 35.3,14.836 35.3,35.73 l 0,0 z m -77.37,0 c 0,23.301 18.88,42.192 42.06,42.192 23.3,0 42.19,-18.891 42.19,-42.192 0,-23.281 -18.89,-42.156 -42.19,-42.156 -23.18,0 -42.06,18.879 -42.06,42.156"
           inkscape:connector-curvature="0" />
      </g>
    </g>
    <g
       transform="matrix(0.13422761,0,0,-0.13422761,10.454514,202.11005)"
       inkscape:label="ink_ext_XXXXXX"
       id="g4428">
      <g
         transform="scale(0.1,0.1)"
         id="g4430">
        <g
           id="g4432">
          <g
             clip-path="url(#clipPath4436)"
             id="g4434">
            <path
               id="path4440"
               style="fill:#ffffff;fill-opacity:1;fill-rule:evenodd;stroke:none"
               d="m 0,0 5500.87,0 0,7336.79 L 0,7336.79 0,0 z"
               inkscape:connector-curvature="0" />
            <path
               id="path4442"
               style="fill:#ffffff;fill-opacity:1;fill-rule:evenodd;stroke:none"
               d="m 233.789,6.87891 4675.74,0 0,7130.49999 -4675.74,0 0,-7130.49999 z"
               inkscape:connector-curvature="0" />
            <path
               id="path4444"
               style="fill:#ed2123;fill-opacity:1;fill-rule:evenodd;stroke:none"
               d="m 1822.17,3630.58 804.5,0 323.18,-880.14 701.36,0 -323.18,880.14 -756.37,1884.04 -749.49,-1884.04 z m 1347.71,3506.8 1739.65,-4386.94 0,4386.94 -1739.65,0 z m -1196.44,0 -1739.651,0 0,-4386.94 1739.651,4386.94"
               inkscape:connector-curvature="0" />
            <path
               id="path4446"
               style="fill:#100f0d;fill-opacity:1;fill-rule:evenodd;stroke:none"
               d="m 880.969,678.531 62.429,-369.109 273.672,0 -282.265,1609.008 -338.301,0 -314.586,-1609.008 273.672,0 64.637,369.109 260.742,0 z m -232.762,242.93 53.91,335.559 c 15.063,92.82 36.582,257.02 51.707,364.08 l 6.469,0 c 12.926,-104.72 32.312,-266.51 47.375,-364.08 l 47.445,-335.559 -206.906,0"
               inkscape:connector-curvature="0" />
            <path
               id="path4448"
               style="fill:#100f0d;fill-opacity:1;fill-rule:evenodd;stroke:none"
               d="m 1816.8,1959.68 0,-578.62 -4.4,0 c -28.74,66.56 -86.22,118.82 -181.32,118.82 -177.61,0 -338.37,-199.61 -338.37,-605.919 0,-330.473 102.86,-605.172 327.3,-605.172 97.29,0 183.52,69.242 222.3,150.453 l 6.4,0 14.91,-129.133 240.46,0 c -4.32,107.68 -8.59,236.883 -8.59,346.973 l 0,1302.598 -278.69,0 z m 0,-1237.629 c 0,-31.211 -2.2,-57.68 -8.87,-74.461 -22.07,-81.688 -64.09,-103.281 -101.69,-103.281 -79.63,0 -134.91,117.652 -134.91,341.121 0,189.78 37.61,350.68 139.3,350.68 57.56,0 92.9,-64.84 101.77,-136.9 4.4,-21.59 4.4,-48.06 4.4,-69.65 l 0,-307.509"
               inkscape:connector-curvature="0" />
            <path
               id="path4450"
               style="fill:#100f0d;fill-opacity:1;fill-rule:evenodd;stroke:none"
               d="m 2655.07,1498.98 c -208.97,0 -406.59,-186.54 -406.59,-609.91 0,-382.988 150.38,-600.281 402.25,-600.281 159.53,0 402.25,118.07 402.25,607.512 0,373.639 -148.24,602.679 -397.91,602.679 z m -2.2,-236.19 c 97.15,0 120.88,-204.9 120.88,-366.489 0,-173.621 -23.73,-371.309 -116.55,-371.309 -101.42,0 -129.48,168.738 -129.48,371.309 0,161.589 21.59,366.489 125.15,366.489"
               inkscape:connector-curvature="0" />
            <path
               id="path4452"
               style="fill:#100f0d;fill-opacity:1;fill-rule:evenodd;stroke:none"
               d="m 3207.97,655.359 c 0,-109.058 -4.19,-242.66 -8.45,-345.179 l 233.3,0 14.51,136.562 6.25,0 C 3508.53,329.641 3570.75,289 3658.7,289 c 192.25,0 355.5,224.641 355.5,638.102 0,317.328 -112.91,574.218 -310.46,574.218 -100.81,0 -169.43,-54.66 -218.8,-137.93 l -4.26,0 0,598.22 -272.71,0 0,-1306.251 z m 272.71,401.631 c 0,21.59 4.26,52.88 10.72,72.13 15,57.69 51.44,108.16 94.35,108.16 94.4,0 135.11,-129.82 135.11,-334.241 0,-226.019 -38.57,-358.309 -132.98,-358.309 -34.32,0 -72.89,24.059 -96.48,108.219 -6.46,16.852 -10.72,45.731 -10.72,74.543 l 0,329.498"
               inkscape:connector-curvature="0" />
            <path
               id="path4454"
               style="fill:#100f0d;fill-opacity:1;fill-rule:evenodd;stroke:none"
               d="m 4907.75,782.84 c 4.33,33.629 8.66,79.14 8.66,163.172 0,355.008 -131.95,552.968 -360.31,552.968 -239.02,0 -423.57,-233.71 -423.57,-627.371 0,-368.347 156.71,-575.937 447.64,-575.937 106.92,0 217.21,21.238 288.65,51.91 l -36.78,222.648 c -51.92,-19.32 -121.16,-38.64 -201.54,-38.64 -124.73,0 -223.2,67.66 -225.4,251.25 l 502.65,0 z m -502.65,220.72 c 2.2,116.55 41.6,266.46 133.46,266.46 85.34,0 120.4,-116.56 120.4,-266.46 l -253.86,0"
               inkscape:connector-curvature="0" />
            <path
               id="path4456"
               style="fill:#100f0d;fill-opacity:1;fill-rule:evenodd;stroke:none"
               d="m 5194.89,7137.38 c -93.03,0 -168.46,-75.43 -168.46,-168.46 0,-93.03 75.43,-168.46 168.46,-168.46 93.03,0 168.46,75.43 168.46,168.46 0,93.03 -75.43,168.46 -168.46,168.46 z m 0,-38.02 c 72.06,0 130.44,-58.38 130.44,-130.44 0,-72.06 -58.38,-130.44 -130.44,-130.44 -72.06,0 -130.44,58.38 -130.44,130.44 0,72.06 58.38,130.44 130.44,130.44 z m -58.45,-230.14 34.17,0 0,78.11 13.07,0 c 13.4,0 33.7,-7.02 37.41,-31.08 3.09,-21.8 7.77,-41.53 10.52,-47.03 l 35.48,0 c -3.78,7.28 -9.36,31.35 -13.34,53.15 -4.06,21.18 -11.14,31.35 -25.31,35.61 l -6.87,0.42 c 20.97,6.94 38.92,26.61 38.92,51.02 0,19.73 -10.87,33.14 -23.52,41.32 -13.27,8.6 -33.35,11.01 -55.76,11.01 -15.61,0 -31.91,-1.11 -44.77,-2.89 l 0,-189.64 z m 34.17,168.74 c 2.14,1.02 26.82,1.3 30.54,1.3 18.08,-0.62 25.23,-14.23 25.23,-33.9 0,-20.01 -9.97,-28.74 -27.71,-28.74 l -28.06,0 0,61.34"
               inkscape:connector-curvature="0" />
          </g>
        </g>
      </g>
    </g>
    <g
       transform="matrix(0.39737544,0,0,-0.39737544,237.01211,62.482887)"
       inkscape:label="ink_ext_XXXXXX"
       id="g4500">
      <g
         transform="scale(0.1,0.1)"
         id="g4502">
        <g
           id="g4504">
          <g
             clip-path="url(#clipPath4508)"
             id="g4506">
            <path
               id="path4512"
               style="fill:#f68d11;fill-opacity:1;fill-rule:evenodd;stroke:none"
               d="M 1767.11,187.09 C 1601.62,64.9609 1361.68,0 1155.08,0 865.508,0 604.766,107.031 407.434,285.215 c -15.493,13.984 -1.672,33.105 16.953,22.265 212.886,-123.886 476.148,-198.496 748.073,-198.496 183.43,0 385.07,38.067 570.6,116.758 27.98,11.875 51.44,-18.437 24.05,-38.652"
               inkscape:connector-curvature="0" />
            <path
               id="path4514"
               style="fill:#f68d11;fill-opacity:1;fill-rule:evenodd;stroke:none"
               d="m 1835.99,265.703 c -21.18,27.109 -139.94,12.852 -193.28,6.465 -16.16,-1.934 -18.67,12.168 -4.1,22.402 94.73,66.543 249.95,47.325 267.99,25.059 18.19,-22.481 -4.75,-178.106 -93.54,-252.3829 -13.66,-11.4258 -26.64,-5.332 -20.59,9.7656 19.97,49.8833 64.7,161.5823 43.52,188.6913"
               inkscape:connector-curvature="0" />
            <path
               id="path4516"
               style="fill:#100f0d;fill-opacity:1;fill-rule:evenodd;stroke:none"
               d="m 1646.47,764.621 0,64.652 c 0.04,9.84 7.46,16.403 16.39,16.383 l 289.78,0.028 c 9.26,-0.004 16.7,-6.746 16.72,-16.332 l -0.02,-55.45 c -0.07,-9.297 -7.9,-21.441 -21.82,-40.703 l -150.1,-214.312 c 55.72,1.308 114.66,-7.028 165.29,-35.489 11.41,-6.41 14.47,-15.921 15.37,-25.238 l 0,-68.98 c 0,-9.512 -10.4,-20.508 -21.33,-14.785 -89.2,46.718 -207.56,51.832 -306.18,-0.567 -10.08,-5.371 -20.63,5.469 -20.63,14.981 l 0,65.582 c 0,10.488 0.2,28.441 10.78,44.437 l 173.91,249.488 -151.42,0.028 c -9.25,0 -16.68,6.594 -16.74,16.277"
               inkscape:connector-curvature="0" />
            <path
               id="path4518"
               style="fill:#100f0d;fill-opacity:1;fill-rule:evenodd;stroke:none"
               d="m 589.434,360.801 -88.157,0 c -8.386,0.547 -15.093,6.855 -15.769,14.902 l 0.058,452.465 c 0,9.055 7.618,16.289 17.012,16.289 l 82.102,0.027 c 8.59,-0.445 15.488,-6.945 16.035,-15.195 l 0,-59.074 1.648,0 c 21.399,57.129 61.719,83.789 116.028,83.789 55.132,0 89.695,-26.66 114.39,-83.789 21.391,57.129 69.946,83.789 121.789,83.789 37.032,0 77.35,-15.234 102.04,-49.512 27.98,-38.086 22.23,-93.308 22.23,-141.871 l -0.07,-285.531 c 0,-9.043 -7.62,-16.289 -17,-16.289 l -88.059,0 c -8.848,0.566 -15.828,7.578 -15.828,16.25 l -0.024,239.867 c 0,19.043 1.653,66.652 -2.468,84.746 -6.582,30.465 -26.329,39.035 -51.836,39.035 -21.399,0 -43.621,-14.285 -52.676,-37.133 -9.055,-22.851 -8.223,-60.933 -8.223,-86.648 l 0,-239.828 c 0,-9.043 -7.617,-16.289 -17.004,-16.289 l -88.054,0 c -8.848,0.566 -15.828,7.578 -15.828,16.25 l -0.09,239.867 c 0,50.465 8.23,124.73 -54.309,124.73 -63.367,0 -60.894,-72.363 -60.894,-124.73 L 606.438,377.09 c 0.007,-9.043 -7.61,-16.289 -17.004,-16.289"
               inkscape:connector-curvature="0" />
            <path
               id="path4520"
               style="fill:#100f0d;fill-opacity:1;fill-rule:evenodd;stroke:none"
               d="m 2219.63,761.645 c -65.02,0 -69.13,-88.543 -69.13,-143.77 0,-55.223 -0.82,-173.289 68.31,-173.289 68.31,0 71.59,95.215 71.59,153.289 0,38.086 -1.64,83.789 -13.16,119.973 -9.89,31.422 -29.64,43.797 -57.61,43.797 z m -0.82,92.359 c 130.85,0 201.61,-112.356 201.61,-255.172 0,-138.055 -78.16,-247.562 -201.61,-247.562 -128.38,0 -198.33,112.359 -198.33,252.32 0,140.918 70.77,250.414 198.33,250.414"
               inkscape:connector-curvature="0" />
            <path
               id="path4522"
               style="fill:#100f0d;fill-opacity:1;fill-rule:evenodd;stroke:none"
               d="m 2590.11,360.801 -87.83,0 c -8.83,0.566 -15.82,7.578 -15.82,16.25 l -0.14,452.64 c 0.74,8.274 8.05,14.766 16.93,14.766 l 81.78,0.027 c 7.69,-0.398 14.04,-5.656 15.66,-12.675 l 0,-69.211 1.66,0 c 24.69,61.89 59.24,91.406 120.14,91.406 39.49,0 78.18,-14.281 102.87,-53.32 23.05,-36.18 23.05,-97.118 23.05,-140.918 l 0,-284.707 c -1,-8.028 -8.19,-14.258 -16.9,-14.258 l -88.38,0 c -8.16,0.527 -14.74,6.523 -15.7,14.258 l 0,245.668 c 0,49.511 5.76,121.875 -55.14,121.875 -21.4,0 -41.15,-14.282 -51.01,-36.18 -12.34,-27.61 -14,-55.227 -14,-85.695 l 0,-243.637 c -0.16,-9.043 -7.78,-16.289 -17.17,-16.289"
               inkscape:connector-curvature="0" />
            <path
               id="path4524"
               style="fill:#100f0d;fill-opacity:1;fill-rule:evenodd;stroke:none"
               d="m 2903.66,396.699 c 0,22.774 19.44,41.227 43.4,41.227 23.97,0 43.38,-18.453 43.38,-41.227 0,-22.754 -19.41,-41.211 -43.38,-41.211 -23.96,0 -43.4,18.457 -43.4,41.211"
               inkscape:connector-curvature="0" />
            <path
               id="path4526"
               style="fill:#100f0d;fill-opacity:1;fill-rule:nonzero;stroke:none"
               d="m 3837.69,360.684 c -9.15,0.273 -16.45,7.402 -16.45,16.269 l 0,452.524 c 0.63,7.98 7.36,14.343 15.78,14.882 l 32.36,0.012 c 8.91,0 16.22,-6.508 16.94,-14.902 l 0,-65.981 c 23.01,52.285 65.88,93.246 120.08,93.246 l 3.39,-0.05 3.27,0.05 c 57.48,0 99.55,-42.418 115.17,-104.031 24.36,60.832 70.26,104.031 130.78,104.031 l 3.15,-0.05 3.53,0.05 c 42.78,0 83.93,-27.613 105.34,-69.507 20.56,-39.985 19.74,-93.305 19.74,-138.055 l -0.02,-272.238 c 0.02,-8.672 -6.97,-15.684 -15.82,-16.25 l -38.73,0 c -8.34,0.254 -15.17,6.23 -16.29,14.043 l 0,274.445 c 0,32.371 1.64,66.648 -11.52,96.164 -13.46,30.215 -39.08,48.984 -66.64,50.379 -30.78,-1.531 -59.03,-23.867 -77.29,-54.188 -23.86,-39.039 -23.02,-74.265 -23.02,-119.968 l 0,-246.989 c -1.1,-7.5 -7.62,-13.359 -15.69,-13.886 l -38.53,0 c -9.14,0.273 -16.47,7.402 -16.47,16.269 l -0.17,290.309 c 0,26.66 -1.64,58.082 -13.99,81.883 -14.22,27.394 -39.76,45.152 -66.52,46.562 -27.76,-1.551 -55.84,-22.766 -72.48,-47.519 -21.39,-31.415 -25.51,-70.454 -25.51,-110.446 l -0.02,-260.808 c 0,-8.672 -6.99,-15.684 -15.82,-16.25 l -38.55,0"
               inkscape:connector-curvature="0" />
            <path
               id="path4528"
               style="fill:#100f0d;fill-opacity:1;fill-rule:nonzero;stroke:none"
               d="m 3581.24,413.105 c 41.15,1.348 73.61,26.833 92.83,69.446 17.27,38.086 20.57,81.883 20.57,123.773 0,45.703 -4.94,93.309 -26.33,132.348 -19.16,34.144 -52.21,55.773 -87.21,57.066 -38.96,-1.429 -73.69,-27.765 -91.29,-68.492 -15.62,-35.23 -20.56,-81.887 -20.56,-120.922 0,-43.797 5.76,-94.258 23.87,-132.344 17.57,-36.085 51.5,-59.585 88.12,-60.875 z m -9.22,-61.953 c -125.08,0 -181.03,127.594 -181.03,255.172 0,134.25 65.84,250.41 191.73,250.41 l 3.25,-0.031 3.41,0.031 c 122.62,0 183.52,-123.773 183.52,-251.359 0,-135.203 -67.48,-254.223 -194.22,-254.223 l -3.24,0.039 -3.42,-0.039"
               inkscape:connector-curvature="0" />
            <path
               id="path4530"
               style="fill:#100f0d;fill-opacity:1;fill-rule:nonzero;stroke:none"
               d="m 3181.14,415 c 56.15,1.758 85.63,46.762 97.87,105.102 2.39,7.269 7.97,12.871 16.16,12.871 l 37.14,0.156 c 8.75,-0.457 16.8,-7.16 16.14,-15.324 -17.15,-99.231 -77.05,-166.653 -162.42,-166.653 l -3.44,0.039 -3.22,-0.039 c -124.26,0 -177.76,124.731 -177.76,251.364 0,125.683 54.32,254.218 178.58,254.218 l 3.28,-0.035 3.38,0.035 c 86.23,0 147.77,-66.449 161.13,-165.742 0,-7.445 -6.92,-13.898 -15.02,-14.84 l -38.93,0.453 c -8.08,1.161 -13.43,8.184 -14.65,15.989 -9.37,55.429 -41.21,99.5 -94.25,101.246 -84.5,-2.703 -108.54,-106.688 -108.54,-186.559 0,-77.101 20.06,-189.488 104.55,-192.281"
               inkscape:connector-curvature="0" />
            <path
               id="path4532"
               style="fill:#100f0d;fill-opacity:1;fill-rule:evenodd;stroke:none"
               d="m 1504.35,361.934 c -5.84,-5.235 -14.25,-5.586 -20.83,-2.051 -29.28,24.336 -34.53,35.586 -50.53,58.75 -48.4,-49.297 -82.68,-64.082 -145.35,-64.082 -74.22,0 -131.96,45.801 -131.96,137.402 0,71.567 38.76,120.231 94.02,144.086 47.83,20.996 114.64,24.813 165.77,30.539 l 0,11.449 c 0,20.993 1.65,45.805 -10.72,63.93 -10.73,16.227 -31.34,22.906 -49.49,22.906 -33.62,0 -63.51,-17.23 -70.86,-52.937 -1.52,-7.946 -7.32,-15.805 -15.31,-16.207 l -85.45,9.246 c -7.21,1.629 -15.23,7.414 -13.15,18.43 19.64,103.667 113.25,134.984 197.15,134.984 42.88,0 98.96,-11.449 132.77,-43.895 42.89,-40.078 38.76,-93.515 38.76,-151.726 l 0,-137.348 c 0,-41.312 17.17,-59.437 33.28,-81.703 5.63,-8.019 6.9,-17.559 -0.29,-23.414 -18.01,-15.098 -50,-42.891 -67.61,-58.555 l -0.2,0.196 z m -88.88,214.945 c 0,-34.356 0.82,-62.977 -16.5,-93.516 -14.02,-24.812 -36.28,-40.078 -61.03,-40.078 -33.81,0 -53.6,25.774 -53.6,63.938 0,75.082 67.35,88.738 131.13,88.738 l 0,-19.082"
               inkscape:connector-curvature="0" />
            <path
               id="path4534"
               style="fill:#100f0d;fill-opacity:1;fill-rule:evenodd;stroke:none"
               d="m 348.66,361.934 c -5.84,-5.235 -14.258,-5.586 -20.828,-2.051 -29.285,24.336 -34.531,35.586 -50.535,58.75 C 228.906,369.336 194.629,354.551 131.953,354.551 57.7227,354.551 0,400.352 0,491.953 0,563.52 38.7617,612.184 94.0156,636.039 141.848,657.035 208.652,660.852 259.773,666.578 l 0,11.449 c 0,20.993 1.653,45.805 -10.711,63.93 -10.722,16.227 -31.347,22.906 -49.484,22.906 -33.621,0 -63.523,-17.23 -70.855,-52.937 -1.535,-7.946 -7.328,-15.805 -15.325,-16.207 l -85.4371,9.246 c -7.2187,1.629 -15.2461,7.414 -13.1562,18.43 19.6289,103.667 113.2423,134.984 197.1363,134.984 42.895,0 98.965,-11.449 132.786,-43.895 42.878,-40.078 38.757,-93.515 38.757,-151.726 l 0,-137.348 c 0,-41.312 17.161,-59.437 33.274,-81.703 5.625,-8.019 6.894,-17.559 -0.281,-23.414 -18.008,-15.098 -50.012,-42.891 -67.61,-58.555 l -0.207,0.196 z m -88.887,214.945 c 0,-34.356 0.832,-62.977 -16.492,-93.516 -14.011,-24.812 -36.277,-40.078 -61.023,-40.078 -33.813,0 -53.606,25.774 -53.606,63.938 0,75.082 67.356,88.738 131.121,88.738 l 0,-19.082"
               inkscape:connector-curvature="0" />
          </g>
        </g>
      </g>
    </g>
    <g
       transform="matrix(0.7269934,0,0,-0.7269934,164.81076,324.34511)"
       inkscape:label="ink_ext_XXXXXX"
       id="g4581">
      <g
         transform="scale(0.1,0.1)"
         id="g4583">
        <g
           id="g4585">
          <g
             clip-path="url(#clipPath4589)"
             id="g4587">
            <path
               id="path4593"
               style="fill:#1a5dad;fill-opacity:1;fill-rule:nonzero;stroke:none"
               d="m 1218.12,1385.02 c 0,-8.8 10.22,-19.04 19.01,-19.04 l 130.29,0.09 -29.15,46.94 -75.48,0.01 0,180.59 -44.65,0 -0.02,-208.59"
               inkscape:connector-curvature="0" />
            <path
               id="path4595"
               style="fill:#1a5dad;fill-opacity:1;fill-rule:nonzero;stroke:none"
               d="m 632.102,1362.33 0,63.34 -55.329,-15.81 0.063,-78.5 c -10.613,-2.88 -21.731,-4.66 -33.262,-4.66 -70.371,0 -127.422,57.05 -127.422,127.42 0,70.36 57.051,127.41 127.422,127.41 70.375,0 127.422,-57.05 127.422,-127.41 0,-36.02 -14.906,-68.59 -38.894,-91.79 z m 108.191,91.79 c 0,108.63 -88.074,196.71 -196.719,196.71 -108.636,0 -196.711,-88.08 -196.711,-196.71 0,-108.64 88.075,-196.72 196.711,-196.72 11.547,0 22.535,1.08 33.535,2.99 l -0.336,-76.57 55.329,0 0,95.26 c 63.894,32.5 108.191,98.46 108.191,175.04"
               inkscape:connector-curvature="0" />
            <path
               id="path4597"
               style="fill:#1a5dad;fill-opacity:1;fill-rule:nonzero;stroke:none"
               d="m 921.754,1365.95 -128.551,0 c -8.801,0 -19.148,10.21 -19.148,19.01 l -0.09,208.65 44.652,0 0,-180.59 77.453,0 0,180.59 44.657,0 0.039,-208.65 c 0,-8.8 -10.207,-19.01 -19.012,-19.01"
               inkscape:connector-curvature="0" />
            <path
               id="path4599"
               style="fill:#1a5dad;fill-opacity:1;fill-rule:nonzero;stroke:none"
               d="m 1521.34,1585.21 c -17.85,10.46 -38.78,16.49 -60.95,16.49 -66.67,0 -120.72,-54.05 -120.72,-120.71 0,-66.67 54.05,-120.72 120.72,-120.72 20.82,0 40.73,5.42 57.85,14.71 l -21.77,39.2 c -10.77,-5.84 -22.99,-9.2 -36.08,-9.2 -41.98,0 -76.02,34.04 -76.02,76.01 0,41.97 34.04,76 76.02,76 14.17,0 27.5,-4.01 38.84,-10.78 l 22.11,39"
               inkscape:connector-curvature="0" />
            <path
               id="path4601"
               style="fill:#1a5dad;fill-opacity:1;fill-rule:nonzero;stroke:none"
               d="m 1624.76,1404.35 c -41.96,0 -75.93,33.72 -75.93,75.69 0,41.96 33.97,76.31 75.93,76.31 41.98,0 76.02,-34.03 76.02,-76 0,-41.97 -34.04,-76 -76.02,-76 z m 0,196.71 c -66.65,0 -120.6,-54.35 -120.6,-121.02 0,-66.66 53.95,-120.4 120.6,-120.4 66.68,0 120.72,54.05 120.72,120.71 0,66.67 -54.04,120.71 -120.72,120.71"
               inkscape:connector-curvature="0" />
            <path
               id="path4603"
               style="fill:#1a5dad;fill-opacity:1;fill-rule:nonzero;stroke:none"
               d="m 1043.46,1454.05 35.9,81.68 36.04,-81.68 -71.94,0 z m 58.1,139.16 -44.25,0 -99.591,-226.03 47.421,0 23.39,49.79 103.23,-0.01 2.11,-4.78 19.86,-45 47.42,0 -99.59,226.03"
               inkscape:connector-curvature="0" />
            <path
               id="path4605"
               style="fill:#1a5dad;fill-opacity:1;fill-rule:nonzero;stroke:none"
               d="m 2463.68,1393.96 -81.78,188.68 c -4.89,9.09 -13.27,13.29 -25.16,13.29 -11.88,0 -20.26,-4.2 -25.16,-13.29 l -60.1,-138.37 -60.1,138.37 c -4.89,9.09 -13.28,13.29 -25.16,13.29 -11.89,0 -20.28,-4.2 -25.17,-13.29 l -60.1,-138.69 -60.1,138.69 c -4.89,9.09 -13.29,13.29 -25.16,13.29 -11.89,0 -20.27,-4.2 -25.16,-13.29 l -60.11,-138.37 -60.1,138.37 c -4.9,9.09 -13.27,13.29 -25.16,13.29 -11.88,0 -20.25,-4.2 -25.16,-13.29 l -81.76,-188.68 c -11.26,-29.54 29.35,-44.73 42.62,-20.98 l 64.3,150.26 64.29,-150.26 c 8.4,-15.37 34.26,-14.67 41.94,0 l 64.3,150.26 64.3,-150.26 c 4.2,-7.54 11.2,-10.79 18.38,-11.27 0.87,-0.12 1.7,-0.18 2.58,-0.21 0.88,0.03 1.71,0.09 2.58,0.21 7.19,0.48 14.18,3.73 18.39,11.27 l 64.3,150.26 64.28,-150.26 c 7.7,-14.67 33.55,-15.37 41.94,0 l 64.3,150.26 64.29,-150.26 c 13.29,-23.75 53.89,-8.56 42.65,20.98"
               inkscape:connector-curvature="0" />
            <path
               id="path4607"
               style="fill:#1a5dad;fill-opacity:1;fill-rule:nonzero;stroke:none"
               d="m 2455.51,1567.16 0,9.42 6.29,0 c 3.21,0 6.63,-0.69 6.63,-4.47 0,-4.67 -3.48,-4.95 -7.4,-4.95 l -5.52,0 z m 17.73,4.68 c 0,6 -3.55,8.66 -10.74,8.66 l -11.6,0 0,-30.44 4.61,0 0,13.19 5.31,0 8.02,-13.19 5.18,0 -8.66,13.4 c 4.47,0.56 7.88,2.93 7.88,8.38 z m -12.14,-28.56 c -12.08,0 -21.52,9.35 -21.52,22.07 0,12.49 9.44,21.92 21.52,21.92 11.95,0 21.36,-9.43 21.36,-21.92 0,-12.72 -9.41,-22.07 -21.36,-22.07 z m 0,48.39 c -14.52,0 -26.81,-11.17 -26.81,-26.32 0,-15.29 12.29,-26.47 26.81,-26.47 14.38,0 26.68,11.18 26.68,26.47 0,15.15 -12.3,26.32 -26.68,26.32"
               inkscape:connector-curvature="0" />
          </g>
        </g>
      </g>
    </g>
  </g>
</svg>
