<?xml version="1.0" encoding="UTF-8" standalone="no"?>
<!-- Created with Inkscape (http://www.inkscape.org/) -->

<svg
   xmlns:dc="http://purl.org/dc/elements/1.1/"
   xmlns:cc="http://creativecommons.org/ns#"
   xmlns:rdf="http://www.w3.org/1999/02/22-rdf-syntax-ns#"
   xmlns:svg="http://www.w3.org/2000/svg"
   xmlns="http://www.w3.org/2000/svg"
   xmlns:sodipodi="http://sodipodi.sourceforge.net/DTD/sodipodi-0.dtd"
   xmlns:inkscape="http://www.inkscape.org/namespaces/inkscape"
   width="744.09448819"
   height="1052.3622047"
   id="svg2"
   version="1.1"
   inkscape:version="0.48.2 r9819"
   sodipodi:docname="logos.svg">
  <defs
     id="defs4">
    <inkscape:perspective
       sodipodi:type="inkscape:persp3d"
       inkscape:vp_x="0 : 526.18109 : 1"
       inkscape:vp_y="0 : 1000 : 0"
       inkscape:vp_z="744.09448 : 526.18109 : 1"
       inkscape:persp3d-origin="372.04724 : 350.78739 : 1"
       id="perspective3096" />
  </defs>
  <sodipodi:namedview
     id="base"
     pagecolor="#ffffff"
     bordercolor="#666666"
     borderopacity="1.0"
     inkscape:pageopacity="0.0"
     inkscape:pageshadow="2"
     inkscape:zoom="1.979899"
     inkscape:cx="504.80832"
     inkscape:cy="889.818"
     inkscape:document-units="px"
     inkscape:current-layer="layer1"
     showgrid="true"
     inkscape:window-width="1440"
     inkscape:window-height="852"
     inkscape:window-x="0"
     inkscape:window-y="0"
     inkscape:window-maximized="1"
     inkscape:snap-global="false">
    <inkscape:grid
       type="xygrid"
       id="grid2985" />
  </sodipodi:namedview>
  <metadata
     id="metadata7">
    <rdf:RDF>
      <cc:Work
         rdf:about="">
        <dc:format>image/svg+xml</dc:format>
        <dc:type
           rdf:resource="http://purl.org/dc/dcmitype/StillImage" />
        <dc:title></dc:title>
      </cc:Work>
    </rdf:RDF>
  </metadata>
  <g
     inkscape:label="Layer 1"
     inkscape:groupmode="layer"
     id="layer1">
    <path
       id="path3035"
       d="m 289.32218,84.362183 c 8.8375,8.402915 17.67618,16.805827 17.66594,25.191807 -0.007,4.62954 -3.98023,8.37927 -8.86548,8.371 -4.04484,-0.008 -6.23786,-1.76159 -8.26777,-5.26507 2.02991,7.28552 4.22333,10.9336 8.26777,10.94896 h -17.60329 c 4.04287,-0.0154 6.23668,-3.66344 8.26896,-10.94896 -2.03267,3.50387 -4.22609,5.25679 -8.26896,5.26507 -4.88722,0.008 -8.8572,-3.74146 -8.8639,-8.37061 -0.0122,-8.38597 8.82647,-16.789282 17.66673,-25.192197 z"
       clip-rule="evenodd"
       inkscape:connector-curvature="0"
       style="fill-rule:evenodd" />
    <flowRoot
       xml:space="preserve"
       id="flowRoot3044"
       style="font-size:40px;font-style:normal;font-variant:normal;font-weight:normal;font-stretch:normal;line-height:125%;letter-spacing:0px;word-spacing:0px;fill:#000000;fill-opacity:1;stroke:none;font-family:Rockwell;-inkscape-font-specification:Rockwell"
       transform="translate(-8,42)"><flowRegion
         id="flowRegion3046"><rect
           id="rect3048"
           width="270.72089"
           height="73.741135"
           x="318.19806"
           y="36.148724"
           style="font-style:normal;font-variant:normal;font-weight:normal;font-stretch:normal;font-family:Rockwell;-inkscape-font-specification:Rockwell" /></flowRegion><flowPara
         id="flowPara3050">ce Interns</flowPara></flowRoot>    <path
       style="fill-rule:evenodd"
       inkscape:connector-curvature="0"
       clip-rule="evenodd"
       d="m 309.13468,148.29784 c 8.8375,8.40292 17.67618,16.80584 17.66594,25.19181 -0.007,4.62954 -3.98023,8.37927 -8.86548,8.371 -4.04484,-0.008 -6.23786,-1.76159 -8.26777,-5.26507 2.02991,7.28552 4.22333,10.9336 8.26777,10.94896 h -17.60329 c 4.04287,-0.0154 6.23668,-3.66344 8.26896,-10.94896 -2.03267,3.50387 -4.22609,5.2568 -8.26896,5.26507 -4.88722,0.008 -8.8572,-3.74146 -8.8639,-8.37061 -0.0122,-8.38597 8.82647,-16.78928 17.66673,-25.1922 z"
       id="path3004" />
    <flowRoot
       transform="translate(11.8125,109.93566)"
       style="font-size:40px;font-style:normal;font-variant:normal;font-weight:500;font-stretch:normal;line-height:125%;letter-spacing:0px;word-spacing:0px;fill:#000000;fill-opacity:1;stroke:none;font-family:GeosansLight;-inkscape-font-specification:GeosansLight Medium"
       id="flowRoot3006"
       xml:space="preserve"><flowRegion
         id="flowRegion3008"><rect
           style="font-style:normal;font-variant:normal;font-weight:500;font-stretch:normal;font-family:GeosansLight;-inkscape-font-specification:GeosansLight Medium"
           y="36.148724"
           x="318.19806"
           height="73.741135"
           width="270.72089"
           id="rect3010" /></flowRegion><flowPara
         id="flowPara3012"
         style="font-weight:500;-inkscape-font-specification:GeosansLight Medium">ce Interns</flowPara></flowRoot>    <text
       xml:space="preserve"
       style="font-size:40px;font-style:normal;font-variant:normal;font-weight:normal;font-stretch:normal;line-height:125%;letter-spacing:0px;word-spacing:0px;fill:#000000;fill-opacity:1;stroke:none;font-family:Rockwell;-inkscape-font-specification:Rockwell"
       x="278.82242"
       y="57.037041"
       id="text3014"
       sodipodi:linespacing="125%"><tspan
         sodipodi:role="line"
         x="278.82242"
         y="57.037041"
         id="tspan3018">Ace Interns</tspan></text>
    <path
       style="fill-rule:evenodd"
       inkscape:connector-curvature="0"
       clip-rule="evenodd"
       d="m 307.13468,212.29784 c 8.8375,8.40292 17.67618,16.80584 17.66594,25.19181 -0.007,4.62954 -3.98023,8.37927 -8.86548,8.371 -4.04484,-0.008 -6.23786,-1.76159 -8.26777,-5.26507 2.02991,7.28552 4.22333,10.9336 8.26777,10.94896 h -17.60329 c 4.04287,-0.0154 6.23668,-3.66344 8.26896,-10.94896 -2.03267,3.50387 -4.22609,5.2568 -8.26896,5.26507 -4.88722,0.008 -8.8572,-3.74146 -8.8639,-8.37061 -0.0122,-8.38597 8.82647,-16.78928 17.66673,-25.1922 z"
       id="path3802" />
    <flowRoot
       transform="translate(9.8125,173.93566)"
       style="font-size:40px;font-style:normal;font-variant:normal;font-weight:500;font-stretch:normal;line-height:125%;letter-spacing:0px;word-spacing:0px;fill:#000000;fill-opacity:1;stroke:none;font-family:GeosansLight;-inkscape-font-specification:GeosansLight Medium"
       id="flowRoot3804"
       xml:space="preserve"><flowRegion
         id="flowRegion3806"><rect
           style="font-style:normal;font-variant:normal;font-weight:500;font-stretch:normal;font-family:GeosansLight;-inkscape-font-specification:GeosansLight Medium"
           y="36.148724"
           x="318.19806"
           height="73.741135"
           width="270.72089"
           id="rect3808" /></flowRegion><flowPara
         id="flowPara3810"
         style="font-weight:500;-inkscape-font-specification:GeosansLight Medium">ce Interns</flowPara></flowRoot>    <g
       style="font-size:40px;font-style:normal;font-variant:normal;font-weight:normal;font-stretch:normal;line-height:125%;letter-spacing:0px;word-spacing:0px;fill:#ffffff;fill-opacity:1;stroke:none;font-family:Sans;-inkscape-font-specification:Helvetica"
       id="text3814"
       transform="translate(74.314167,-24.881118)">
      <path
         d="m 232.9576,245.30301 -5.35157,14.51172 10.72266,0 -5.37109,-14.51172 m -2.22657,-3.88672 4.47266,0 11.11328,29.16016 -4.10156,0 -2.65625,-7.48047 -13.14453,0 -2.65625,7.48047 -4.16016,0 11.13281,-29.16016"
         style="fill:#ffffff;fill-opacity:1"
         id="path3819"
         inkscape:connector-curvature="0" />
    </g>
    <path
       id="path3821"
       d="m 307.13468,270.29784 c 8.8375,8.40292 17.67618,16.80584 17.66594,25.19181 -0.007,4.62954 -3.98023,8.37927 -8.86548,8.371 -4.04484,-0.008 -6.23786,-1.76159 -8.26777,-5.26507 2.02991,7.28552 4.22333,10.9336 8.26777,10.94896 h -17.60329 c 4.04287,-0.0154 6.23668,-3.66344 8.26896,-10.94896 -2.03267,3.50387 -4.22609,5.2568 -8.26896,5.26507 -4.88722,0.008 -8.8572,-3.74146 -8.8639,-8.37061 -0.0122,-8.38597 8.82647,-16.78928 17.66673,-25.1922 z"
       clip-rule="evenodd"
       inkscape:connector-curvature="0"
       style="fill-rule:evenodd" />
    <flowRoot
       xml:space="preserve"
       id="flowRoot3823"
       style="font-size:40px;font-style:normal;font-variant:normal;font-weight:500;font-stretch:normal;line-height:125%;letter-spacing:0px;word-spacing:0px;fill:#000000;fill-opacity:1;stroke:none;font-family:GeosansLight;-inkscape-font-specification:GeosansLight Medium"
       transform="translate(9.8125,231.93566)"><flowRegion
         id="flowRegion3825"><rect
           id="rect3827"
           width="270.72089"
           height="73.741135"
           x="318.19806"
           y="36.148724"
           style="font-style:normal;font-variant:normal;font-weight:500;font-stretch:normal;font-family:GeosansLight;-inkscape-font-specification:GeosansLight Medium" /></flowRegion><flowPara
         style="font-weight:500;-inkscape-font-specification:GeosansLight Medium"
         id="flowPara3829">ce Interns</flowPara></flowRoot>    <g
       transform="matrix(1.3506475,0,0,1.3506475,-7.4031256,-59.050857)"
       id="g3831"
       style="font-size:40px;font-style:normal;font-variant:normal;font-weight:normal;font-stretch:normal;line-height:125%;letter-spacing:0px;word-spacing:0px;fill:#ffffff;fill-opacity:1;stroke:none;font-family:Sans;-inkscape-font-specification:Helvetica">
      <path
         inkscape:connector-curvature="0"
         id="path3833"
         style="fill:#ffffff;fill-opacity:1"
         d="m 232.9576,245.30301 -5.35157,14.51172 10.72266,0 -5.37109,-14.51172 m -2.22657,-3.88672 4.47266,0 11.11328,29.16016 -4.10156,0 -2.65625,-7.48047 -13.14453,0 -2.65625,7.48047 -4.16016,0 11.13281,-29.16016" />
    </g>
  </g>
</svg>
